{"title":"WWE FRIDAY NIGHT SMACKDOWN 17 08 2012 HDTV BZINGAZ.mp4","uid":7541196,"size":279971332,"categoryP":"video","categoryS":"tv_shows","magnet":"?xt=urn:btih:77d18d86fc44a059ae2eabfdf520cbc7602e95f6&amp;dn=WWE+FRIDAY+NIGHT+SMACKDOWN+17+08+2012+HDTV+BZINGAZ.mp4&amp;tr=udp%3A%2F%2Ftracker.openbittorrent.com%3A80&amp;tr=udp%3A%2F%2Fopen.demonii.com%3A1337&amp;tr=udp%3A%2F%2Ftracker.coppersurfer.tk%3A6969&amp;tr=udp%3A%2F%2Fexodus.desync.com%3A6969","seeders":0,"leechers":0,"uploader":"bzingaz","files":1,"time":1345219304,"description":"WWE FRIDAY NIGHT SMACKDOWN 17 08 2012 HDTV  IN MKV FORMAT..Download**Enjoy**Seed\n\n\nDETAILS ARE:\n\nWWE FRIDAY NIGHT SMACKDOWN 17 08 2012 HDTV BZINGAZ.mp4\n\nFormat                           : MPEG-4\nFormat profile                   : Base Media\nCodec ID                         : isom\nFile size                        : 267 MiB\nDuration                         : 1h 21mn\nOverall bit rate                 : 459 Kbps\n\nVideo\nID                               : 1\nFormat                           : AVC\nFormat/Info                      : Advanced Video Codec\nFormat profile                   : &lt;a class=&quot;__cf_email__&quot; href=&quot;/cdn-cgi/l/email-protection&quot; data-cfemail=&quot;e9ab889a8c8580878ca9a5dac7d9&quot;&gt;[email&amp;#160;protected]&lt;/a&gt;&lt;script data-cfhash='f9e31' type=&quot;text/javascript&quot;&gt;\n/* &lt;![CDATA[ */!function(){try{var t=&quot;currentScript&quot;in document?document.currentScript:function(){for(var t=document.getElementsByTagName(&quot;script&quot;),e=t.length;e--;)if(t[e].getAttribute(&quot;data-cfhash&quot;))return t[e]}();if(t&amp;&amp;t.previousSibling){var e,r,n,i,c=t.previousSibling,a=c.getAttribute(&quot;data-cfemail&quot;);if(a){for(e=&quot;&quot;,r=parseInt(a.substr(0,2),16),n=2;a.length-n;n+=2)i=parseInt(a.substr(n,2),16)^r,e+=String.fromCharCode(i);e=document.createTextNode(e),c.parentNode.replaceChild(e,c)}t.parentNode.removeChild(t);}}catch(u){}}()/* ]]&gt; */&lt;/script&gt;\nFormat settings, CABAC           : No\nFormat settings, ReFrames        : 3 frames\nCodec ID                         : avc1\nCodec ID/Info                    : Advanced Video Coding\nDuration                         : 1h 21mn\nBit rate mode                    : Variable\nBit rate                         : 360 Kbps\nWidth                            : 512 pixels\nHeight                           : 288 pixels\nDisplay aspect ratio             : 16:9\nFrame rate mode                  : Constant\nFrame rate                       : 29.970 fps\nColor space                      : YUV\nChroma subsampling               : 4:2:0\nBit depth                        : 8 bits\nScan type                        : Progressive\nBits/(Pixel*Frame)               : 0.081\nStream size                      : 208 MiB (78%)\n\nAudio\nID                               : 2\nFormat                           : AAC\nFormat/Info                      : Advanced Audio Codec\nFormat profile                   : LC\nCodec ID                         : 40\nDuration                         : 1h 21mn\nBit rate mode                    : Variable\nBit rate                         : 96.0 Kbps\nChannel(s)                       : 2 channels\nChannel positions                : Front: L R\nSampling rate                    : 44.1 KHz\nCompression mode                 : Lossy\nStream size                      : 55.8 MiB (21%)\n","torrent":{"xt":"urn:btih:77d18d86fc44a059ae2eabfdf520cbc7602e95f6","amp;dn":"WWE+FRIDAY+NIGHT+SMACKDOWN+17+08+2012+HDTV+BZINGAZ.mp4","amp;tr":["udp%3A%2F%2Ftracker.openbittorrent.com%3A80","udp%3A%2F%2Fopen.demonii.com%3A1337","udp%3A%2F%2Ftracker.coppersurfer.tk%3A6969","udp%3A%2F%2Fexodus.desync.com%3A6969"],"infoHash":"77d18d86fc44a059ae2eabfdf520cbc7602e95f6","infoHashBuffer":{"type":"Buffer","data":[119,209,141,134,252,68,160,89,174,46,171,253,245,32,203,199,96,46,149,246]},"announce":[],"urlList":[]}}